<svg xmlns="http://www.w3.org/2000/svg" viewBox="0 0 783.39 107.73"><defs><style>.cls-1{fill:#ff2b06;}.cls-2,.cls-3{fill:#fff;}.cls-3{font-size:80.42px;font-family:Helvetica, Helvetica;}</style></defs><title>tedx_logo_4</title><g id="Layer_2" data-name="Layer 2"><g id="Layer_1-2" data-name="Layer 1"><path class="cls-1" d="M5.81,94.4l-4.14-6H5.61l2.22,3.29L10,88.43h3.83L9.7,94.33l4.65,6.7H10.41l-2.63-4-2.63,4H1.27Z"/><path class="cls-2" d="M30.76,93.57H18.45V91H30.76Zm0,5.21H18.45V96.18H30.76Z"/><path class="cls-2" d="M40.18,86.48H36.72V83.63h3.46Zm-3.46,1.95h3.46V101H36.72Z"/><path class="cls-2" d="M42.43,88.43h3.29v1.75h.07a4.49,4.49,0,0,1,3.85-2.1c3.68,0,4.61,2.07,4.61,5.19V101H50.78V93.91c0-2.07-.61-3.09-2.22-3.09-1.88,0-2.68,1-2.68,3.61V101H42.43Z"/><path class="cls-2" d="M65.38,99.42h0a4.18,4.18,0,0,1-3.83,1.95c-3.8,0-5.65-3.27-5.65-6.75s1.88-6.53,5.58-6.53A4.41,4.41,0,0,1,65.18,90h0V83.63h3.46V101H65.38Zm-3-8.72c-2.27,0-3,1.95-3,4s.9,4,3,4,3-2,3-4.07S64.6,90.7,62.36,90.7Z"/><path class="cls-2" d="M73.64,95.57c.1,2.19,1.17,3.19,3.09,3.19a2.85,2.85,0,0,0,2.73-1.63h3a5.67,5.67,0,0,1-5.9,4.24c-4,0-6.43-2.73-6.43-6.63a6.32,6.32,0,0,1,6.43-6.65c4.29,0,6.36,3.61,6.12,7.48Zm5.63-2.19c-.32-1.75-1.07-2.68-2.75-2.68a2.73,2.73,0,0,0-2.88,2.68Z"/><path class="cls-2" d="M84.28,88.43h3.29V90h0a4.19,4.19,0,0,1,3.75-1.95c3.95,0,5.73,3.19,5.73,6.77,0,3.36-1.85,6.51-5.53,6.51a4.47,4.47,0,0,1-3.78-1.9h0v6H84.28Zm9.36,6.34c0-2-.8-4.07-3-4.07s-3,2-3,4.07.78,4,3,4S93.64,96.81,93.64,94.76Z"/><path class="cls-2" d="M101.54,95.57c.1,2.19,1.17,3.19,3.09,3.19a2.85,2.85,0,0,0,2.73-1.63h3a5.67,5.67,0,0,1-5.9,4.24c-4,0-6.43-2.73-6.43-6.63a6.32,6.32,0,0,1,6.43-6.65c4.29,0,6.36,3.61,6.12,7.48Zm5.63-2.19c-.32-1.75-1.07-2.68-2.75-2.68a2.73,2.73,0,0,0-2.88,2.68Z"/><path class="cls-2" d="M112.18,88.43h3.29v1.75h.07a4.49,4.49,0,0,1,3.85-2.1c3.68,0,4.61,2.07,4.61,5.19V101h-3.46V93.91c0-2.07-.61-3.09-2.22-3.09-1.88,0-2.68,1-2.68,3.61V101h-3.46Z"/><path class="cls-2" d="M135.14,99.42h0a4.18,4.18,0,0,1-3.83,1.95c-3.8,0-5.65-3.27-5.65-6.75s1.88-6.53,5.58-6.53A4.41,4.41,0,0,1,134.94,90h0V83.63h3.46V101h-3.29Zm-3-8.72c-2.27,0-3,1.95-3,4s.9,4,3,4,3-2,3-4.07S134.36,90.7,132.11,90.7Z"/><path class="cls-2" d="M143.39,95.57c.1,2.19,1.17,3.19,3.09,3.19a2.85,2.85,0,0,0,2.73-1.63h3a5.67,5.67,0,0,1-5.9,4.24c-4,0-6.43-2.73-6.43-6.63a6.32,6.32,0,0,1,6.43-6.65c4.29,0,6.36,3.61,6.12,7.48ZM149,93.38c-.32-1.75-1.07-2.68-2.75-2.68a2.73,2.73,0,0,0-2.88,2.68Z"/><path class="cls-2" d="M154,88.43h3.29v1.75h.07a4.49,4.49,0,0,1,3.85-2.1c3.68,0,4.61,2.07,4.61,5.19V101H162.4V93.91c0-2.07-.61-3.09-2.22-3.09-1.88,0-2.68,1-2.68,3.61V101H154Z"/><path class="cls-2" d="M172.39,88.43h2.53v2.31h-2.53V97c0,1.17.29,1.46,1.46,1.46a5.33,5.33,0,0,0,1.07-.1v2.7a13.26,13.26,0,0,1-2,.12c-2.12,0-4-.49-4-3V90.74h-2.1V88.43h2.1V84.65h3.46Z"/><path class="cls-2" d="M176.19,83.63h3.46V101h-3.46Z"/><path class="cls-2" d="M188.1,102.61c-.76,2-1.95,2.85-4.34,2.85a20.56,20.56,0,0,1-2.12-.12v-2.85a18.35,18.35,0,0,0,2,.12,1.63,1.63,0,0,0,1.19-2.36l-4.43-11.82h3.7L187,97.05h0l2.75-8.63h3.58Z"/><path class="cls-2" d="M206.45,88.09c4,0,6.53,2.63,6.53,6.65s-2.56,6.63-6.53,6.63-6.51-2.63-6.51-6.63S202.5,88.09,206.45,88.09Zm0,10.67c2.36,0,3.07-2,3.07-4s-.71-4-3.07-4-3,2-3,4S204.11,98.76,206.45,98.76Z"/><path class="cls-2" d="M214.25,88.43h3.29v2.34h0a4.45,4.45,0,0,1,4-2.68,2.58,2.58,0,0,1,.76.12v3.22a6.32,6.32,0,0,0-1.24-.12c-2.53,0-3.41,1.83-3.41,4V101h-3.46Z"/><path class="cls-2" d="M235.35,100.22c0,2.07-.73,5.58-6.53,5.58-2.49,0-5.38-1.17-5.56-4h3.44a2.34,2.34,0,0,0,2.58,1.73c1.93,0,2.8-1.32,2.78-3.12V98.71h0a4.26,4.26,0,0,1-3.78,1.95c-3.78,0-5.38-2.88-5.38-6.34,0-3.27,1.88-6.24,5.41-6.24a3.92,3.92,0,0,1,3.75,2h0V88.43h3.29Zm-3.29-5.65c0-2-.71-3.87-2.95-3.87-1.95,0-2.8,1.71-2.8,3.58s.68,3.78,2.8,3.78S232.06,96.37,232.06,94.57Z"/><path class="cls-2" d="M237,92.3c.19-3.24,3.09-4.22,5.92-4.22,2.51,0,5.53.56,5.53,3.58v6.55a6.45,6.45,0,0,0,.44,2.8h-3.51a5.14,5.14,0,0,1-.24-1.22,5.78,5.78,0,0,1-4.24,1.56c-2.39,0-4.29-1.19-4.29-3.78,0-2.85,2.14-3.53,4.29-3.83s4.09-.24,4.09-1.66-1-1.71-2.24-1.71-2.17.54-2.29,1.9Zm8,2.56c-.58.51-1.8.54-2.88.73s-2,.58-2,1.85,1,1.61,2.12,1.61a2.57,2.57,0,0,0,2.8-2.9Z"/><path class="cls-2" d="M250.65,88.43h3.29v1.75H254a4.49,4.49,0,0,1,3.85-2.1c3.68,0,4.61,2.07,4.61,5.19V101H259V93.91c0-2.07-.61-3.09-2.22-3.09-1.88,0-2.68,1-2.68,3.61V101h-3.46Z"/><path class="cls-2" d="M267.68,86.48h-3.46V83.63h3.46Zm-3.46,1.95h3.46V101h-3.46Z"/><path class="cls-2" d="M269.14,98.42,275.7,91h-6.07V88.43h10.62V91l-6.55,7.38h7V101H269.14Z"/><path class="cls-2" d="M284.93,95.57c.1,2.19,1.17,3.19,3.09,3.19a2.85,2.85,0,0,0,2.73-1.63h3a5.67,5.67,0,0,1-5.9,4.24c-4,0-6.43-2.73-6.43-6.63a6.32,6.32,0,0,1,6.43-6.65c4.29,0,6.36,3.61,6.12,7.48Zm5.63-2.19c-.32-1.75-1.07-2.68-2.75-2.68a2.73,2.73,0,0,0-2.88,2.68Z"/><path class="cls-2" d="M304.57,99.42h0a4.18,4.18,0,0,1-3.83,1.95c-3.8,0-5.65-3.27-5.65-6.75s1.88-6.53,5.58-6.53A4.41,4.41,0,0,1,304.37,90h0V83.63h3.46V101h-3.29Zm-3-8.72c-2.27,0-3,1.95-3,4s.9,4,3,4,3-2,3-4.07S303.79,90.7,301.55,90.7Z"/><path class="cls-2" d="M320.48,86.85h-5.21V83.63h14.25v3.22h-5.21V101h-3.83Z"/><path class="cls-2" d="M331,83.63h13v3.22h-9.19v3.73h8.43v3h-8.43v4.26h9.38V101H331Z"/><path class="cls-2" d="M345.84,83.63h7.5c4.51,0,7.89,2.83,7.89,8.6,0,5-2.58,8.8-7.89,8.8h-7.5Zm3.83,14.18h3.41c2.22,0,4.34-1.36,4.34-5.21,0-3.51-1.22-5.75-5-5.75h-2.73Z"/><path class="cls-2" d="M372.18,95.57c.1,2.19,1.17,3.19,3.09,3.19A2.85,2.85,0,0,0,378,97.13h3a5.67,5.67,0,0,1-5.9,4.24c-4,0-6.43-2.73-6.43-6.63a6.32,6.32,0,0,1,6.43-6.65c4.29,0,6.36,3.61,6.12,7.48Zm5.63-2.19c-.32-1.75-1.07-2.68-2.75-2.68a2.73,2.73,0,0,0-2.88,2.68Z"/><path class="cls-2" d="M389.31,101h-3.85l-4.31-12.6h3.63l2.66,8.6h0l2.66-8.6h3.44Z"/><path class="cls-2" d="M396.89,95.57c.1,2.19,1.17,3.19,3.09,3.19a2.85,2.85,0,0,0,2.73-1.63h3a5.67,5.67,0,0,1-5.9,4.24c-4,0-6.43-2.73-6.43-6.63a6.32,6.32,0,0,1,6.43-6.65c4.29,0,6.36,3.61,6.12,7.48Zm5.63-2.19c-.32-1.75-1.07-2.68-2.75-2.68a2.73,2.73,0,0,0-2.88,2.68Z"/><path class="cls-2" d="M407.54,88.43h3.29v1.75h.07a4.49,4.49,0,0,1,3.85-2.1c3.68,0,4.61,2.07,4.61,5.19V101h-3.46V93.91c0-2.07-.61-3.09-2.22-3.09-1.88,0-2.68,1-2.68,3.61V101h-3.46Z"/><path class="cls-2" d="M425.88,88.43h2.53v2.31h-2.53V97c0,1.17.29,1.46,1.46,1.46a5.32,5.32,0,0,0,1.07-.1v2.7a13.25,13.25,0,0,1-2,.12c-2.12,0-4-.49-4-3V90.74h-2.1V88.43h2.1V84.65h3.46Z"/><path class="cls-1" d="M16.23,26.07H0V11.22H50.3V26.07H34.07V69.15H16.23Z"/><path class="cls-1" d="M53.07,11.22H101.9V26.07h-31v7.22h31v13.8h-31V54.3h31V69.15H53.07Z"/><path class="cls-1" d="M104.9,11.22h29.29c19.31,0,26.13,14.28,26.13,28.88,0,17.77-9.41,29-29.61,29H104.9ZM122.75,54.3h7c11.12,0,12.74-9,12.74-14.45,0-3.64-1.14-13.78-14-13.78h-5.68Z"/><path class="cls-1" d="M186,46.83l-5.44-9-5.31,9H162.14l12.41-18.26-12-17.46h13.08l4.84,8.63,5-8.63h13.08l-12,17.46L199,46.83Z"/><text class="cls-3" transform="translate(206.69 69.05)">ChulalongkornU</text></g></g></svg>